<?xml version="1.0" encoding="UTF-8"?>
<svg width="400" height="320" viewBox="0 0 500 400" xmlns="http://www.w3.org/2000/svg">
    <!-- Background -->
    <rect x="50" y="20" width="400" height="300" fill="#e0e8e4" stroke="#333" stroke-width="2"/>
    
    <!-- Grid lines -->
    <g stroke="#aaa" stroke-width="1" stroke-dasharray="2,2">
        <line x1="150" y1="20" x2="150" y2="320"/>
        <line x1="250" y1="20" x2="250" y2="320"/>
        <line x1="350" y1="20" x2="350" y2="320"/>
        <line x1="50" y1="120" x2="450" y2="120"/>
        <line x1="50" y1="220" x2="450" y2="220"/>
    </g>

    <!-- Objects (buildings) -->
    <g>
        <!-- Building 1 -->
        <rect x="120" y="80" width="40" height="30" fill="#868e96" stroke="#495057"/>
        <circle cx="140" cy="95" r="3" fill="#FF5722"/>
        
        <!-- Building 2 -->
        <rect x="280" y="150" width="50" height="40" fill="#868e96" stroke="#495057"/>
        <circle cx="305" cy="170" r="3" fill="#FF5722"/>
        
        <!-- Building 3 -->
        <rect x="180" y="240" width="45" height="35" fill="#868e96" stroke="#495057"/>
        <circle cx="202.5" cy="257.5" r="3" fill="#FF5722"/>
    </g>

    <!-- Sampling Windows -->
    <g>
        <!-- Window around Building 1 -->
        <rect x="90" y="45" width="100" height="100" fill="none" stroke="#2196F3" stroke-width="2"/>
        <line x1="140" y1="45" x2="140" y2="145" stroke="#FF5722" stroke-width="1" stroke-dasharray="4,4"/>
        <line x1="90" y1="95" x2="190" y2="95" stroke="#FF5722" stroke-width="1" stroke-dasharray="4,4"/>
        <text x="95" y="65" fill="#2196F3" font-size="14" font-family="Helvetica">Window 1</text>

        <!-- Window around Building 2 -->
        <rect x="255" y="120" width="100" height="100" fill="none" stroke="#2196F3" stroke-width="2"/>
        <line x1="305" y1="120" x2="305" y2="220" stroke="#FF5722" stroke-width="1" stroke-dasharray="4,4"/>
        <line x1="255" y1="170" x2="355" y2="170" stroke="#FF5722" stroke-width="1" stroke-dasharray="4,4"/>
        <text x="260" y="140" fill="#2196F3" font-size="14" font-family="Helvetica">Window 2</text>

        <!-- Window around Building 3 -->
        <rect x="152.5" y="207.5" width="100" height="100" fill="none" stroke="#2196F3" stroke-width="2"/>
        <line x1="202.5" y1="207.5" x2="202.5" y2="307.5" stroke="#FF5722" stroke-width="1" stroke-dasharray="4,4"/>
        <line x1="152.5" y1="257.5" x2="252.5" y2="257.5" stroke="#FF5722" stroke-width="1" stroke-dasharray="4,4"/>
        <text x="157.5" y="227.5" fill="#2196F3" font-size="14" font-family="Helvetica">Window 3</text>
    </g>

    <!-- Measurements for one window -->
    <g>
        <!-- Horizontal measurement -->
        <line x1="90" y1="30" x2="190" y2="30" stroke="#666" stroke-width="1" marker-start="url(#arrow-start)" marker-end="url(#arrow-end)"/>
        <rect x="120" y="15" width="40" height="15" fill="white" fill-opacity="0.6" rx="2"/>
        <text x="125" y="27" fill="#666" font-size="12" font-family="Helvetica">100px</text>
    </g>

    <!-- Arrow marker definitions -->
    <defs>
        <marker id="arrow-start" markerWidth="10" markerHeight="7" 
            refX="0" refY="3.5" orient="auto">
            <polygon points="10 0, 0 3.5, 10 7" fill="#666"/>
        </marker>
        <marker id="arrow-end" markerWidth="10" markerHeight="7" 
            refX="10" refY="3.5" orient="auto">
            <polygon points="0 0, 10 3.5, 0 7" fill="#666"/>
        </marker>
    </defs>
    
    <!-- Legend -->
    <g transform="translate(50, 370)">
        <rect width="15" height="15" fill="#868e96" stroke="#495057"/>
        <text x="25" y="12" fill="#666" font-size="12">Object (e.g., building)</text>
        
        <circle cx="200" cy="7" r="3" fill="#FF5722"/>
        <text x="210" y="12" fill="#666" font-size="12">Object centroid</text>
        
        <rect x="320" y="0" width="15" height="15" fill="none" stroke="#2196F3" stroke-width="2"/>
        <text x="340" y="12" fill="#666" font-size="12">Sampling window</text>
    </g>

    <text x="50" y="350" fill="#666" font-size="12">Pattern: Fixed-size windows centered on object centroids</text>
</svg>